<?xml version="1.0" encoding="UTF-8"?>
<svg id="Layer_2" data-name="Layer 2" xmlns="http://www.w3.org/2000/svg" viewBox="0 0 2447.59 821.28">
  <defs>
    <style>
      .cls-1 {
        fill: #ffe149;
      }

      .cls-2 {
        fill: #3e0953;
      }
    </style>
  </defs>
  <g id="Layer_1-2" data-name="Layer 1">
    <g>
      <path class="cls-2" d="M86.23,346.23c0,13.32-4.19,24.64-12.57,33.97-8.38,9.32-18.56,13.99-30.54,13.99s-22.16-4.66-30.54-13.99c-8.38-9.32-12.57-20.65-12.57-33.97v-176.84c0-44.63,14.27-82.81,42.81-114.56C71.15,23.31,105.48,7.55,145.81,7.55s74.05,15.65,102.39,46.96c28.34-31.3,62.47-46.96,102.4-46.96s74.65,15.77,102.99,47.29c28.54,31.75,42.82,69.93,42.82,114.56v176.84c0,13.32-4.19,24.64-12.57,33.97-8.38,9.32-18.56,13.99-30.54,13.99s-22.15-4.66-30.54-13.99c-8.38-9.32-12.57-20.65-12.57-33.97v-176.84c0-18.2-5.79-33.74-17.36-46.62-11.58-12.87-25.65-19.32-42.21-19.32s-30.34,6.44-41.92,19.32c-11.58,12.88-17.37,28.42-17.37,46.62v176.84c0,13.32-4.19,24.64-12.57,33.97-8.38,9.32-18.56,13.99-30.54,13.99s-22.15-4.66-30.54-13.99c-8.38-9.32-12.57-20.65-12.57-33.97v-176.84c0-18.2-5.79-33.74-17.36-46.62-11.58-12.87-25.55-19.32-41.92-19.32s-30.64,6.44-42.22,19.32c-11.58,12.88-17.36,28.42-17.36,46.62v176.84Z"/>
      <path class="cls-2" d="M1713.07,11.48c-9.81-7.62-21.77-11.48-35.56-11.48s-25.75,3.86-35.55,11.48c-10.4,8.07-15.67,18.18-15.67,30.02v73.79c0,16.59-7.53,30.5-23.07,42.56-15.66,12.31-35.02,18.55-57.54,18.55s-42.18-6.24-57.88-18.58c-15.5-12.03-23.03-25.94-23.03-42.53V41.5c0-11.84-5.27-21.95-15.67-30.02-9.81-7.62-21.77-11.48-35.56-11.48s-25.75,3.86-35.55,11.48c-10.4,8.07-15.67,18.18-15.67,30.02v73.79c0,40.05,18.29,74.56,54.37,102.58,35.48,27.56,78.88,41.53,128.99,41.53,29.37,0,57.25-5.25,83.03-15.62,6.1,34.17-19.8,56.17-25.49,60.54-15.67,12.31-35.03,18.55-57.54,18.55-13.47,0-26.14-2.34-37.7-6.98-11.57-4.56-21.31-11.03-28.84-19.1-8.11-9.07-19.19-14.5-32.85-16.12-2.96-.39-5.92-.59-8.78-.59-10.17,0-19.71,2.49-28.22,7.31-11.9,6.41-19.21,15.48-21.74,27.12-2.3,11.71.87,22.41,9.46,31.83,17.22,18.6,39.21,33.38,65.41,43.96,26.18,10.33,54.2,15.57,83.25,15.57,49.89,0,93.19-13.97,128.69-41.53,36.08-28.03,54.38-62.46,54.38-102.34V41.5c0-11.84-5.27-21.94-15.67-30.02Z"/>
      <path class="cls-2" d="M2289.31,400.12c-21.14,0-44.87-4.71-70.53-14-27.27-9.96-51.51-24.53-72.06-43.31-8.85-8.09-13.84-18.53-14.82-31.02-1.19-12.77,1.91-24.09,9.19-33.73,6.75-9.21,15.45-13.66,26.66-13.66h.83c10.72.23,20.79,4.56,29.86,12.9l.11.1.12.1c29.43,24.44,60.33,36.83,91.84,36.83h.29c35.48-1.72,57.86-8.73,68.44-21.42,5.42-6.51,7.56-14.51,6.36-23.77-2.32-26.96-47.81-26.96-62.78-26.96-3.89,0-8.06.08-12.38.25-4.15.16-8.29.24-12.31.24-36.07,0-67.42-6.5-93.19-19.31-36.42-18.35-54.9-49.83-54.9-93.55s21.41-78.23,63.63-101.15c29.68-16.06,61.85-24.2,95.6-24.2,21.32,0,44.93,4.71,70.18,13.99,26.23,9.5,49.4,23.58,68.9,41.87,8.48,8.37,13.28,18.94,14.27,31.43.78,12.45-2.5,23.69-9.77,33.33-7.48,9.39-16.91,14.7-28.03,15.79-1.03.08-2.12.12-3.2.12-9.8,0-18.7-3.68-26.47-10.95-26.85-25.7-55.86-38.88-86.18-39.11h-.13c-33.42.45-56.21,6.91-67.74,19.21-6.57,7.01-9.62,15.97-9.08,26.65l.02.23c1.61,17.99,22.4,26.74,63.54,26.74,3.98,0,8.19-.08,12.53-.25,3.73-.15,7.49-.23,11.18-.23,34.52,0,65.62,6.84,92.45,20.33,37.05,18.59,55.83,49.26,55.83,91.14s-18.94,73.26-56.3,96.39c-30.29,18.77-64.09,28.51-100.48,28.96h-1.49Z"/>
      <path class="cls-2" d="M1313.79,316.59l-126.54-117.31,126.54-117.31c17.79-16.5,19.07-44.54,2.86-62.65-16.21-18.1-43.78-19.4-61.58-2.9l-132.52,122.87-132.52-122.87c-17.79-16.5-45.37-15.19-61.58,2.9-16.22,18.1-14.94,46.15,2.86,62.65l126.54,117.31-126.54,117.31c-17.79,16.5-19.07,44.54-2.86,62.65,8.6,9.6,20.39,14.47,32.23,14.47,10.48,0,20.99-3.82,29.35-11.57l132.52-122.87,132.52,122.87c8.36,7.75,18.87,11.57,29.35,11.57,11.84,0,23.63-4.88,32.23-14.47,16.22-18.1,14.94-46.15-2.86-62.65Z"/>
      <path class="cls-1" d="M2057.4,64.15c-22.35-24.85-47.75-41.5-76.24-50-4.1-1.22-8.27-2.27-12.5-3.15-11-2.31-22.44-3.45-34.31-3.45-9.89,0-19.47.8-28.76,2.43-6.61,1.14-13.09,2.69-19.39,4.66-27.79,8.59-52.67,25.11-74.6,49.51-33.92,37.76-50.9,83.38-50.9,136.88,0,36.74,8.07,69.8,24.22,99.16.8,1.43,1.61,2.87,2.43,4.3.7,1.21,1.43,2.42,2.16,3.61.73,1.21,1.49,2.4,2.26,3.58,5.8,9,12.41,17.63,19.83,25.88,8.51,9.48,17.45,17.75,26.85,24.83,7.94,6,16.19,11.15,24.75,15.45-.01.01-.01.04-.03.05,4.05,2.02,8.16,3.86,12.37,5.51-83.82,209.28-295.88,358.24-543.6,358.24s-462.19-150.66-545.01-361.79c14.88-6.82,28.83-16.14,41.87-27.93.94-.86,1.88-1.74,2.83-2.61.56-.52,1.12-1.05,1.66-1.59,3.32-3.21,6.57-6.6,9.76-10.15,7.42-8.26,14.03-16.88,19.83-25.88.77-1.18,1.53-2.38,2.26-3.58.73-1.19,1.46-2.4,2.16-3.61.82-1.43,1.63-2.87,2.43-4.3,16.15-29.36,24.22-62.42,24.22-99.16,0-53.5-16.98-99.12-50.9-136.88-19.71-21.93-41.82-37.48-66.34-46.65-8.91-3.36-18.12-5.85-27.66-7.5-9.38-1.62-19.07-2.44-29.07-2.44-8.3,0-16.39.56-24.26,1.69-7.62,1.1-15.04,2.72-22.24,4.88-28.46,8.47-53.87,25.15-76.24,50.02-33.94,37.76-50.9,83.38-50.9,136.88,0,36.74,8.07,69.8,24.22,99.16.8,1.43,1.61,2.87,2.43,4.3.7,1.21,1.43,2.42,2.16,3.61.73,1.21,1.49,2.4,2.26,3.58,5.8,9,12.41,17.63,19.83,25.88,21.97,24.46,46.88,40.99,74.74,49.59.7.24,1.42.45,2.15.65,1.65.48,3.32.94,5,1.37,8.95,2.27,18.2,3.76,27.74,4.46,4.78,13.22,10.03,26.32,15.74,39.29,33.42,75.88,81.24,143.98,142.11,202.43,60.76,58.33,131.49,104.12,210.22,136.1,81.43,33.08,167.9,49.84,256.99,49.84s175.55-16.76,256.99-49.84c78.73-31.97,149.46-77.76,210.22-136.1,60.87-58.45,108.68-126.55,142.1-202.43,5.87-13.31,11.24-26.77,16.13-40.36,30.79-4.17,58.41-16.86,82.9-38.08.61-.53,1.22-1.06,1.82-1.61.92-.81,1.83-1.65,2.75-2.5,4.29-4,8.47-8.26,12.56-12.81,8.48-9.44,15.9-19.35,22.27-29.76,1.09-1.78,2.15-3.58,3.17-5.4.48-.82.94-1.66,1.39-2.5.73-1.34,1.45-2.68,2.14-4.02,2.04-3.96,3.96-7.98,5.69-12.06,10.83-25.12,16.23-52.73,16.23-82.79,0-53.5-16.96-99.12-50.9-136.88Z"/>
    </g>
  </g>
</svg>
