<?xml version="1.0" encoding="UTF-8"?>
<svg id="Layer_2" data-name="Layer 2" xmlns="http://www.w3.org/2000/svg" viewBox="0 0 1086.13 1086.13">
  <defs>
    <style>
      .cls-1 {
        fill: #ffe149;
      }

      .cls-2 {
        fill: #3e0953;
      }
    </style>
  </defs>
  <g id="Layer_1-2" data-name="Layer 1">
    <g>
      <rect class="cls-2" width="1086.13" height="1086.13" rx="62.13" ry="62.13"/>
      <path class="cls-1" d="M985.33,476.25c0-83.9-68.02-151.92-151.92-151.92s-151.92,68.02-151.92,151.92c0,54.17,28.38,101.69,71.06,128.59-39.82,74.34-120.78,123-209.49,123.77-88.7-.77-169.67-49.42-209.49-123.77,42.68-26.89,71.06-74.41,71.06-128.59,0-83.9-68.02-151.92-151.92-151.92s-151.92,68.02-151.92,151.92c0,77.92,58.68,142.11,134.26,150.86.36.84.72,1.67,1.08,2.51,17.03,38.67,41.38,73.36,72.37,103.11,30.83,29.62,66.73,52.84,106.63,69.06,40.57,16.48,83.61,24.97,127.92,25.21,44.31-.24,87.35-8.73,127.92-25.21,39.91-16.22,75.8-39.44,106.63-69.06,30.98-29.75,55.33-64.43,72.37-103.11.36-.84.72-1.67,1.08-2.51,75.58-8.75,134.26-72.94,134.26-150.86Z"/>
    </g>
  </g>
</svg>
